# xmcd
#
# Track frame offsets: 
#        150
#        18042
#        37577
#        58492
#        81267
#        97592
#        117312
#        134662
#        154196
#        170937
#        187360
#        204786
#        228765
#        256313
#
# Disc length: 3914 seconds
#
# Revision: 1
# Processed by: cddbd v1.5.2PL0 Copyright (c) Steve Scherf et al.
# Submitted via: ExactAudioCopyFreeDBPlugin 1.0
#
DISCID=b60f480e
DTITLE=Rene and Angela - Rise
DYEAR=1983
DGENRE=Funk
TTITLE0=Rise
TTITLE1=Keep Runnin'
TTITLE2=My First Love
TTITLE3=Bangin' The Boogie
TTITLE4=When It Comes To You
TTITLE5=Wait Until Tonight
TTITLE6=Can't Give You Up
TTITLE7=Take Me To The Limit
TTITLE8=Bangin' The Boogie (Single Version)
TTITLE9=Keep Runnin' (Single Version)
TTITLE10=My First Love (Single Version)
TTITLE11=Bangin' The Boogie (Instrumental)
TTITLE12=Keep Runnin' (12" Version)
TTITLE13=Keep Runnin' (Dub Version)
EXTD=
EXTT0=
EXTT1=
EXTT2=
EXTT3=
EXTT4=
EXTT5=
EXTT6=
EXTT7=
EXTT8=
EXTT9=
EXTT10=
EXTT11=
EXTT12=
EXTT13=
PLAYORDER=
